<svg width="480" height="140" viewBox="0 0 480 140" fill="none" xmlns="http://www.w3.org/2000/svg" role="img" aria-labelledby="title desc">
  <title id="title">JahandCo logo</title>
  <desc id="desc">Bold JahandCo wordmark with subtle glitch accents and a barcode underneath.</desc>
  <defs>
    <linearGradient id="glitchCyan" x1="0" y1="0" x2="1" y2="1">
      <stop offset="0%" stop-color="#67E8F9" stop-opacity="0.95"/>
      <stop offset="100%" stop-color="#22D3EE" stop-opacity="0.2"/>
    </linearGradient>
    <linearGradient id="glitchViolet" x1="0" y1="0" x2="1" y2="1">
      <stop offset="0%" stop-color="#C084FC" stop-opacity="0.9"/>
      <stop offset="100%" stop-color="#A78BFA" stop-opacity="0.16"/>
    </linearGradient>
  </defs>

  <g transform="translate(18 18)">
    <rect x="62" y="10" width="42" height="6" rx="1.5" fill="url(#glitchCyan)" opacity="0.9"/>
    <rect x="334" y="12" width="32" height="5" rx="1.5" fill="url(#glitchViolet)" opacity="0.9"/>
    <rect x="128" y="44" width="26" height="4" rx="1" fill="url(#glitchViolet)" opacity="0.8"/>
    <rect x="286" y="6" width="22" height="4" rx="1" fill="url(#glitchCyan)" opacity="0.8"/>

    <text
      x="222"
      y="56"
      fill="white"
      font-family="Arial Black, Impact, Helvetica Neue, sans-serif"
      font-size="50"
      font-weight="900"
      letter-spacing="2.4"
      text-anchor="middle"
    >
      JAHANDCO
    </text>

    <rect x="152" y="22" width="14" height="5" fill="url(#glitchCyan)" opacity="0.9"/>
    <rect x="244" y="34" width="12" height="5" fill="url(#glitchViolet)" opacity="0.9"/>
    <rect x="314" y="18" width="16" height="4" fill="url(#glitchCyan)" opacity="0.7"/>

    <g transform="translate(30 80)" fill="white">
      <rect x="0" y="0" width="2" height="30"/>
      <rect x="5" y="0" width="1" height="30" opacity="0.72"/>
      <rect x="10" y="0" width="3" height="30"/>
      <rect x="17" y="0" width="1" height="30" opacity="0.68"/>
      <rect x="21" y="0" width="2" height="30"/>
      <rect x="27" y="0" width="4" height="30"/>
      <rect x="35" y="0" width="1" height="30" opacity="0.62"/>
      <rect x="40" y="0" width="2" height="30"/>
      <rect x="47" y="0" width="5" height="30"/>
      <rect x="57" y="0" width="1" height="30" opacity="0.7"/>
      <rect x="63" y="0" width="2" height="30"/>
      <rect x="69" y="0" width="1" height="30" opacity="0.6"/>
      <rect x="75" y="0" width="4" height="30"/>
      <rect x="84" y="0" width="2" height="30"/>
      <rect x="91" y="0" width="1" height="30" opacity="0.7"/>
      <rect x="97" y="0" width="5" height="30"/>
      <rect x="108" y="0" width="2" height="30"/>
      <rect x="114" y="0" width="1" height="30" opacity="0.65"/>
      <rect x="119" y="0" width="3" height="30"/>
      <rect x="126" y="0" width="1" height="30" opacity="0.68"/>
      <rect x="131" y="0" width="6" height="30"/>
      <rect x="143" y="0" width="2" height="30"/>
      <rect x="148" y="0" width="1" height="30" opacity="0.6"/>
      <rect x="154" y="0" width="4" height="30"/>
      <rect x="163" y="0" width="2" height="30"/>
      <rect x="169" y="0" width="1" height="30" opacity="0.7"/>
      <rect x="175" y="0" width="5" height="30"/>
      <rect x="185" y="0" width="2" height="30"/>
      <rect x="191" y="0" width="1" height="30" opacity="0.65"/>
      <rect x="196" y="0" width="6" height="30"/>
      <rect x="208" y="0" width="1" height="30" opacity="0.75"/>
      <rect x="214" y="0" width="3" height="30"/>
      <rect x="221" y="0" width="5" height="30"/>
      <rect x="231" y="0" width="1" height="30" opacity="0.65"/>
      <rect x="236" y="0" width="2" height="30"/>
      <rect x="242" y="0" width="4" height="30"/>
      <rect x="251" y="0" width="1" height="30" opacity="0.75"/>
      <rect x="256" y="0" width="5" height="30"/>
      <rect x="266" y="0" width="2" height="30"/>
      <rect x="272" y="0" width="1" height="30" opacity="0.7"/>
      <rect x="278" y="0" width="6" height="30"/>
      <rect x="290" y="0" width="1" height="30" opacity="0.62"/>
      <rect x="295" y="0" width="3" height="30"/>
      <rect x="303" y="0" width="2" height="30"/>
      <rect x="309" y="0" width="5" height="30"/>
      <rect x="320" y="0" width="1" height="30" opacity="0.66"/>
      <rect x="325" y="0" width="2" height="30"/>
      <rect x="332" y="0" width="4" height="30"/>
      <rect x="341" y="0" width="1" height="30" opacity="0.72"/>
      <rect x="347" y="0" width="6" height="30"/>
      <rect x="359" y="0" width="1" height="30" opacity="0.66"/>
      <rect x="365" y="0" width="3" height="30"/>
      <rect x="373" y="0" width="2" height="30"/>
      <rect x="379" y="0" width="5" height="30"/>
    </g>
  </g>
</svg>